<?xml version="1.0" encoding="UTF-8"?>
<svg id="Camada_2" xmlns="http://www.w3.org/2000/svg" viewBox="0 0 500 500">
  <defs>
    <style>
      .cls-1 {
        fill: #fff;
      }
    </style>
  </defs>
  <g id="Camada_1-2" data-name="Camada_1">
    <circle cx="250" cy="250" r="250"/>
    <g>
      <path class="cls-1" d="M211.3,303.14h-12.75v-91.62h-.15l-32.1,91.62h-14.07l-31.52-91.77h-.29v91.77h-12.46v-106.13h20.52l31.22,90.3h.15l31.22-90.3h20.23v106.13Z"/>
      <path class="cls-1" d="M252.78,303.14h-13.34v-106.13h34.59c27.12,0,35.33,14.95,35.33,31.81,0,25.21-14.95,35.77-40.46,35.77h-16.12v38.55ZM267.88,253.01c15.39,0,27.56-3.66,27.56-23.45,0-15.25-8.36-21.11-25.36-21.11h-17.3v44.56h15.1Z"/>
      <path class="cls-1" d="M334.29,223.1c0,12.9,12.02,16.56,25.36,20.52,15.54,4.54,32.4,9.53,32.4,30.05,0,22.43-17.88,31.22-37.53,31.22-22.13,0-35.92-8.79-38.7-30.64l12.9-1.91c2.49,11.29,7.77,21.11,25.95,21.11,11.43,0,23.6-3.81,23.6-17.88,0-13.19-11.87-16.71-24.92-20.38-15.83-4.4-32.84-8.94-32.84-30.78,0-18.18,15.25-29.32,35.77-29.32,18.62,0,32.69,7.18,34.89,29.9l-12.61,1.47c-1.61-10.12-5.72-19.94-22.13-19.94s-22.14,7.18-22.14,16.56Z"/>
    </g>
  </g>
</svg>